<svg width="9" height="12" viewBox="0 0 9 12" fill="none" xmlns="http://www.w3.org/2000/svg">
<path d="M0.0826931 10.2099V1.78995C0.0822115 1.45753 0.175879 1.13178 0.352852 0.850393C0.529825 0.569006 0.782868 0.343489 1.08269 0.199947C1.43843 0.0319145 1.83423 -0.0328047 2.22496 0.0131642C2.6157 0.0591331 2.98566 0.213941 3.29269 0.459947L8.39269 4.66995C8.58332 4.83516 8.73621 5.03943 8.84099 5.2689C8.94577 5.49837 9 5.74768 9 5.99995C9 6.25221 8.94577 6.50152 8.84099 6.73099C8.73621 6.96047 8.58332 7.16473 8.39269 7.32995L3.29269 11.5399C2.98566 11.786 2.6157 11.9408 2.22496 11.9867C1.83423 12.0327 1.43843 11.968 1.08269 11.7999C0.782868 11.6564 0.529825 11.4309 0.352852 11.1495C0.175879 10.8681 0.0822115 10.5424 0.0826931 10.2099Z" fill="#FAF0CF"/>
</svg>
