<svg width="20" height="20" viewBox="0 0 20 20" fill="none" xmlns="http://www.w3.org/2000/svg">
<path d="M9.30496 20C8.85496 20 8.46763 19.85 8.14296 19.55C7.81829 19.25 7.62229 18.8833 7.55496 18.45L7.32996 16.8C7.11329 16.7167 6.90929 16.6167 6.71796 16.5C6.52663 16.3833 6.33896 16.2583 6.15496 16.125L4.60496 16.775C4.18829 16.9583 3.77163 16.975 3.35496 16.825C2.93829 16.675 2.61329 16.4083 2.37996 16.025L1.20496 13.975C0.971627 13.5917 0.904961 13.1833 1.00496 12.75C1.10496 12.3167 1.32996 11.9583 1.67996 11.675L3.00496 10.675C2.98829 10.5583 2.97996 10.4457 2.97996 10.337V9.662C2.97996 9.554 2.98829 9.44167 3.00496 9.325L1.67996 8.325C1.32996 8.04167 1.10496 7.68333 1.00496 7.25C0.904961 6.81667 0.971627 6.40833 1.20496 6.025L2.37996 3.975C2.61329 3.59167 2.93829 3.325 3.35496 3.175C3.77163 3.025 4.18829 3.04167 4.60496 3.225L6.15496 3.875C6.33829 3.74167 6.52996 3.61667 6.72996 3.5C6.92996 3.38333 7.12996 3.28333 7.32996 3.2L7.55496 1.55C7.62163 1.11667 7.81763 0.75 8.14296 0.45C8.46829 0.15 8.85563 0 9.30496 0H11.655C12.105 0 12.4926 0.15 12.818 0.45C13.1433 0.75 13.339 1.11667 13.405 1.55L13.63 3.2C13.8466 3.28333 14.051 3.38333 14.243 3.5C14.435 3.61667 14.6223 3.74167 14.805 3.875L16.355 3.225C16.7716 3.04167 17.1883 3.025 17.605 3.175C18.0216 3.325 18.3466 3.59167 18.58 3.975L19.755 6.025C19.9883 6.40833 20.055 6.81667 19.955 7.25C19.855 7.68333 19.63 8.04167 19.28 8.325L17.955 9.325C17.9716 9.44167 17.98 9.55433 17.98 9.663V10.337C17.98 10.4457 17.9633 10.5583 17.93 10.675L19.255 11.675C19.605 11.9583 19.83 12.3167 19.93 12.75C20.03 13.1833 19.9633 13.5917 19.73 13.975L18.53 16.025C18.2966 16.4083 17.9716 16.675 17.555 16.825C17.1383 16.975 16.7216 16.9583 16.305 16.775L14.805 16.125C14.6216 16.2583 14.43 16.3833 14.23 16.5C14.03 16.6167 13.83 16.7167 13.63 16.8L13.405 18.45C13.3383 18.8833 13.1426 19.25 12.818 19.55C12.4933 19.85 12.1056 20 11.655 20H9.30496ZM10.53 13.5C11.4966 13.5 12.3216 13.1583 13.005 12.475C13.6883 11.7917 14.03 10.9667 14.03 10C14.03 9.03333 13.6883 8.20833 13.005 7.525C12.3216 6.84167 11.4966 6.5 10.53 6.5C9.54663 6.5 8.71729 6.84167 8.04196 7.525C7.36663 8.20833 7.02929 9.03333 7.02996 10C7.03063 10.9667 7.36829 11.7917 8.04296 12.475C8.71763 13.1583 9.54663 13.5 10.53 13.5Z" fill="#3C2A21"/>
</svg>
