<svg width="50" height="51" viewBox="0 0 50 51" fill="none" xmlns="http://www.w3.org/2000/svg">
<path d="M24.9988 42.3875L12.8803 50.0312C12.3449 50.3879 11.7852 50.5407 11.2012 50.4898C10.6172 50.4388 10.1062 50.235 9.66814 49.8783C9.23013 49.5216 8.88945 49.0762 8.6461 48.5422C8.40276 48.0081 8.35409 47.4089 8.5001 46.7444L11.7122 32.2978L0.980797 22.5903C0.494111 22.1317 0.190418 21.6088 0.0697201 21.0218C-0.050978 20.4348 -0.0149634 19.862 0.177764 19.3035C0.370492 18.745 0.662503 18.2864 1.0538 17.9276C1.44509 17.5689 1.98045 17.3396 2.65986 17.2397L16.8224 15.9403L22.2976 2.33449C22.541 1.72299 22.9187 1.26437 23.4307 0.958621C23.9426 0.652873 24.4653 0.5 24.9988 0.5C25.5322 0.5 26.0549 0.652873 26.5669 0.958621C27.0789 1.26437 27.4565 1.72299 27.6999 2.33449L33.1751 15.9403L47.3376 17.2397C48.019 17.3416 48.5544 17.5709 48.9437 17.9276C49.3331 18.2843 49.6251 18.743 49.8197 19.3035C50.0144 19.864 50.0514 20.4378 49.9307 21.0249C49.81 21.6119 49.5053 22.1337 49.0167 22.5903L38.2853 32.2978L41.4974 46.7444C41.6434 47.4068 41.5948 48.0061 41.3514 48.5422C41.1081 49.0782 40.7674 49.5236 40.3294 49.8783C39.8914 50.2329 39.3803 50.4368 38.7963 50.4898C38.2123 50.5428 37.6526 50.3899 37.1172 50.0312L24.9988 42.3875Z" fill="#696761"/>
</svg>
