<svg width="22" height="38" viewBox="0 0 22 38" fill="none" xmlns="http://www.w3.org/2000/svg">
<path d="M20.4443 36.501C20.9598 35.9853 21.2494 35.2859 21.2494 34.5567C21.2494 33.8275 20.9598 33.1282 20.4443 32.6125L6.83176 19L20.4443 5.38749C20.9452 4.86883 21.2224 4.17418 21.2161 3.45313C21.2098 2.73209 20.9206 2.04236 20.4108 1.53249C19.9009 1.02261 19.2112 0.733402 18.4901 0.727137C17.7691 0.720871 17.0744 0.998055 16.5558 1.49899L0.99901 17.0557C0.483465 17.5714 0.193848 18.2708 0.193848 19C0.193848 19.7292 0.483465 20.4285 0.99901 20.9442L16.5558 36.501C17.0715 37.0165 17.7708 37.3062 18.5 37.3062C19.2292 37.3062 19.9286 37.0165 20.4443 36.501Z" fill="#FAF0CF" fill-opacity="0.8"/>
</svg>
