<svg width="15" height="18" viewBox="0 0 15 18" fill="none" xmlns="http://www.w3.org/2000/svg">
<path d="M7.80641 5.45373L4.27279 11.1967C4.02103 11.6207 3.94608 12.1267 4.06412 12.6055C4.18215 13.0843 4.48371 13.4975 4.9037 13.7559C5.3237 14.0143 5.82847 14.0973 6.30908 13.9868C6.78968 13.8764 7.20759 13.5814 7.47262 13.1655L12.1095 5.64122C12.3347 5.28496 12.4869 4.88755 12.5574 4.47201C12.6279 4.05647 12.6152 3.63108 12.52 3.22049C12.4248 2.80991 12.2491 2.42229 12.0031 2.08012C11.757 1.73794 11.4454 1.44802 11.0865 1.22715C10.7275 1.00628 10.3283 0.858859 9.91191 0.793433C9.49555 0.728008 9.07034 0.745879 8.66094 0.84601C8.25154 0.946142 7.86608 1.12654 7.52692 1.37675C7.18775 1.62696 6.90163 1.94201 6.68513 2.30363L2.02228 9.88181C1.70403 10.3826 1.48853 10.9417 1.38829 11.5266C1.28804 12.1114 1.30506 12.7104 1.43836 13.2886C1.57165 13.8668 1.81856 14.4128 2.16473 14.8947C2.5109 15.3767 2.94942 15.785 3.4548 16.0959C3.96018 16.4069 4.52233 16.6143 5.10858 16.7061C5.69482 16.7978 6.29346 16.7722 6.86969 16.6305C7.44592 16.4889 7.98824 16.2341 8.46513 15.881C8.94202 15.5279 9.34395 15.0835 9.64756 14.5736L14.0048 7.49211" stroke="#FAF0CF" stroke-miterlimit="10" stroke-linecap="round"/>
</svg>
