<svg width="13" height="14" viewBox="0 0 13 14" fill="none" xmlns="http://www.w3.org/2000/svg">
<path d="M1.47727 13.5C1.07102 13.5 0.723371 13.3587 0.434318 13.076C0.145265 12.7934 0.000492424 12.4532 0 12.0555V1.94444C0 1.54722 0.144773 1.2073 0.434318 0.924666C0.723864 0.642037 1.07152 0.500481 1.47727 0.5H5.90909C6.11837 0.5 6.29392 0.569333 6.43574 0.708C6.57756 0.846666 6.64822 1.01807 6.64773 1.22222C6.64723 1.42637 6.57633 1.59802 6.435 1.73717C6.29367 1.87631 6.11837 1.94541 5.90909 1.94444H1.47727V12.0555H5.90909C6.11837 12.0555 6.29392 12.1249 6.43574 12.2635C6.57756 12.4022 6.64822 12.5736 6.64773 12.7778C6.64723 12.9819 6.57633 13.1536 6.435 13.2927C6.29367 13.4319 6.11837 13.501 5.90909 13.5H1.47727ZM10.4702 7.72222H5.17045C4.96117 7.72222 4.78587 7.65288 4.64455 7.51422C4.50322 7.37555 4.43231 7.20414 4.43182 7C4.43133 6.79585 4.50223 6.62444 4.64455 6.48577C4.78686 6.34711 4.96216 6.27777 5.17045 6.27777H10.4702L9.08523 4.92361C8.94981 4.7912 8.8821 4.6287 8.8821 4.43611C8.8821 4.24352 8.94981 4.075 9.08523 3.93055C9.22064 3.78611 9.39299 3.71076 9.60227 3.7045C9.81155 3.69824 9.99006 3.76757 10.1378 3.9125L12.7784 6.49444C12.9261 6.63888 13 6.8074 13 7C13 7.19259 12.9261 7.36111 12.7784 7.50555L10.1378 10.0875C9.99006 10.2319 9.81475 10.3013 9.61188 10.2955C9.409 10.2897 9.23345 10.2144 9.08523 10.0694C8.94981 9.92499 8.8853 9.75359 8.8917 9.55522C8.89811 9.35684 8.96877 9.19122 9.10369 9.05833L10.4702 7.72222Z" fill="#FFF2C7"/>
</svg>
