<svg width="11" height="18" viewBox="0 0 11 18" fill="none" xmlns="http://www.w3.org/2000/svg">
<path d="M3.62877 6.00003V12.743C3.63656 13.2361 3.8379 13.7063 4.18934 14.0523C4.54079 14.3982 5.01415 14.5921 5.50729 14.5921C6.00042 14.5921 6.47379 14.3982 6.82523 14.0523C7.17667 13.7063 7.37801 13.2361 7.3858 12.743L7.3919 3.90472C7.39701 3.48328 7.31842 3.06502 7.16068 2.67418C7.00294 2.28334 6.76919 1.9277 6.47298 1.62787C6.17677 1.32804 5.82399 1.09 5.43509 0.927526C5.04619 0.765056 4.62891 0.681396 4.20744 0.681396C3.78597 0.681396 3.36869 0.765056 2.9798 0.927526C2.5909 1.09 2.23812 1.32804 1.94191 1.62787C1.6457 1.9277 1.41195 2.28334 1.25421 2.67418C1.09647 3.06502 1.01788 3.48328 1.02299 3.90472V12.8025C1.0144 13.3959 1.12385 13.985 1.34496 14.5356C1.56608 15.0863 1.89445 15.5875 2.31099 16.0101C2.72753 16.4327 3.22392 16.7683 3.77131 16.9973C4.31871 17.2264 4.90617 17.3443 5.49955 17.3443C6.09294 17.3443 6.6804 17.2264 7.22779 16.9973C7.77518 16.7683 8.27157 16.4327 8.68811 16.0101C9.10465 15.5875 9.43303 15.0863 9.65414 14.5356C9.87526 13.985 9.9847 13.3959 9.97611 12.8025V4.48785" stroke="#FFF2C7" stroke-opacity="0.7" stroke-miterlimit="10" stroke-linecap="round"/>
</svg>
