<svg width="22" height="38" viewBox="0 0 22 38" fill="none" xmlns="http://www.w3.org/2000/svg">
<path d="M1.55574 1.49901C1.0402 2.01471 0.750578 2.71406 0.750578 3.44326C0.750578 4.17246 1.0402 4.87181 1.55574 5.38751L15.1682 19L1.55574 32.6125C1.05481 33.1312 0.77762 33.8258 0.783886 34.5469C0.790152 35.2679 1.07937 35.9576 1.58924 36.4675C2.09911 36.9774 2.78885 37.2666 3.50989 37.2729C4.23093 37.2791 4.92558 37.0019 5.44424 36.501L21.001 20.9443C21.5165 20.4286 21.8062 19.7292 21.8062 19C21.8062 18.2708 21.5165 17.5715 21.001 17.0558L5.44424 1.49901C4.92854 0.983465 4.22919 0.693848 3.49999 0.693848C2.77079 0.693848 2.07144 0.983465 1.55574 1.49901Z" fill="#FAF0CF" fill-opacity="0.8"/>
</svg>
